<svg xmlns="http://www.w3.org/2000/svg" id="illustration" viewBox="0 0 1024 768"><defs><clipPath id="clip-path"><path d="m767.3 559.1-520-14.9a48.07 48.07 0 0 1-46.5-43.3l-25.1-248a48.18 48.18 0 0 1 47.2-53l578.8-8a48.21 48.21 0 0 1 48.5 54.1l-33.7 271a48.1 48.1 0 0 1-49.2 42.1Z" class="cls-1"/></clipPath><style>.cls-1,.cls-11,.cls-14,.cls-15,.cls-18,.cls-20,.cls-21,.cls-22,.cls-23,.cls-27,.cls-29,.cls-4,.cls-6{fill:none}.cls-2{fill:#eaf9f3}.cls-3{clip-path:url(#clip-path)}.cls-4,.cls-6{stroke:#b8d8c7}.cls-11,.cls-14,.cls-15,.cls-18,.cls-20,.cls-21,.cls-22,.cls-23,.cls-27,.cls-29,.cls-4,.cls-6{stroke-linecap:round;stroke-linejoin:round}.cls-11,.cls-14,.cls-15,.cls-18,.cls-20,.cls-23,.cls-27,.cls-29,.cls-4{stroke-width:1.8px}.cls-5{fill:#b8d8c7}.cls-6{stroke-width:1.8px}.cls-7{fill:#b0d7c0}.cls-8{fill:#22272e}.cls-9{fill:#f4c2c9}.cls-10{fill:#6dafa7}.cls-11,.cls-21,.cls-22{stroke:#22272e}.cls-12{fill:#ffe779}.cls-13{fill:#b28d93}.cls-14{stroke:#896068}.cls-15{stroke:#63737a}.cls-16{fill:#896068}.cls-17{fill:#63737a}.cls-18{stroke:#fff}.cls-19{fill:#f8ab5d}.cls-20{stroke:#f8ab5d}.cls-21{stroke-width:4px}.cls-22{stroke-width:1.8px}.cls-23{stroke:#e26e85}.cls-24{fill:#fff}.cls-25{fill:#e26e85}.cls-26{fill:#e86484}.cls-27{stroke:#6dafa7}.cls-28{fill:#ffe7ca}.cls-29{stroke:#ffbf94}.cls-30{fill:#ffbf94}</style></defs><path d="m767.3 559.1-520-14.9a48.07 48.07 0 0 1-46.5-43.3l-25.1-248a48.18 48.18 0 0 1 47.2-53l578.8-8a48.21 48.21 0 0 1 48.5 54.1l-33.7 271a48.1 48.1 0 0 1-49.2 42.1Z" class="cls-2"/><g class="cls-3"><path d="M342.9 604.2H-72.6a15 15 0 0 1-15-15V353.5a15 15 0 0 1 15-15h415.5a15 15 0 0 1 15 15v235.6a15.07 15.07 0 0 1-15 15.1ZM892 588.3H472.9a15 15 0 0 1-15-15V229a15 15 0 0 1 15-15H892a15 15 0 0 1 15 15v344.3a15 15 0 0 1-15 15Z" class="cls-4"/><path d="M228.1 338.5h-20.3a4.32 4.32 0 0 1-4.3-3.8l-1.6-14.4a4.33 4.33 0 0 1 4.3-4.8h23.5a4.34 4.34 0 0 1 4.3 4.8l-1.6 14.4a4.32 4.32 0 0 1-4.3 3.8Z" class="cls-4"/><path d="M215.5 315.6s-8-.8-9.6-11.6c0 0 7.2 2.1 9.5 7.2 0 0 1-11.4 6.4-12.5 0 0 2.4 8.5-1.4 12.7 0 0 2.9-4.8 10.3-4.7a13.6 13.6 0 0 1-9.2 8.8" class="cls-5"/><path d="M339.8 388.2h-90.2a4.23 4.23 0 0 1-4.2-4.2v-27.4a4.23 4.23 0 0 1 4.2-4.2h90.2a4.23 4.23 0 0 1 4.2 4.2V384a4.23 4.23 0 0 1-4.2 4.2Z" class="cls-4"/><path d="M305 362.1h-20.8a1.54 1.54 0 0 1-1.5-1.5 1.54 1.54 0 0 1 1.5-1.5H305a1.54 1.54 0 0 1 1.5 1.5 1.47 1.47 0 0 1-1.5 1.5Z" class="cls-5"/><path d="M339.8 434h-90.2a4.23 4.23 0 0 1-4.2-4.2v-27.4a4.23 4.23 0 0 1 4.2-4.2h90.2a4.23 4.23 0 0 1 4.2 4.2v27.4a4.23 4.23 0 0 1-4.2 4.2Z" class="cls-4"/><path d="M305 407.9h-20.8a1.54 1.54 0 0 1-1.5-1.5 1.54 1.54 0 0 1 1.5-1.5H305a1.54 1.54 0 0 1 1.5 1.5 1.47 1.47 0 0 1-1.5 1.5Z" class="cls-5"/><path d="M802.9 466.4h-90.2a4.23 4.23 0 0 1-4.2-4.2v-27.4a4.23 4.23 0 0 1 4.2-4.2h90.2a4.23 4.23 0 0 1 4.2 4.2v27.4a4.1 4.1 0 0 1-4.2 4.2Z" class="cls-4"/><path d="M768.2 440.2h-20.8a1.54 1.54 0 0 1-1.5-1.5 1.54 1.54 0 0 1 1.5-1.5h20.8a1.54 1.54 0 0 1 1.5 1.5 1.47 1.47 0 0 1-1.5 1.5Z" class="cls-5"/><path d="M687.1 466.4h-90.2a4.23 4.23 0 0 1-4.2-4.2v-27.4a4.23 4.23 0 0 1 4.2-4.2h90.2a4.23 4.23 0 0 1 4.2 4.2v27.4a4.1 4.1 0 0 1-4.2 4.2Z" class="cls-4"/><path d="M652.4 440.2h-20.8a1.54 1.54 0 0 1-1.5-1.5 1.54 1.54 0 0 1 1.5-1.5h20.8a1.54 1.54 0 0 1 1.5 1.5 1.47 1.47 0 0 1-1.5 1.5Z" class="cls-5"/><path d="M224.8 388.2h-90.2a4.23 4.23 0 0 1-4.2-4.2v-27.4a4.23 4.23 0 0 1 4.2-4.2h90.2a4.23 4.23 0 0 1 4.2 4.2V384a4.23 4.23 0 0 1-4.2 4.2Z" class="cls-4"/><path d="M190 362.1h-20.8a1.54 1.54 0 0 1-1.5-1.5 1.54 1.54 0 0 1 1.5-1.5H190a1.54 1.54 0 0 1 1.5 1.5 1.47 1.47 0 0 1-1.5 1.5Z" class="cls-5"/><path d="M224.8 434h-90.2a4.23 4.23 0 0 1-4.2-4.2v-27.4a4.23 4.23 0 0 1 4.2-4.2h90.2a4.23 4.23 0 0 1 4.2 4.2v27.4a4.23 4.23 0 0 1-4.2 4.2Z" class="cls-4"/><path d="M190 407.9h-20.8a1.54 1.54 0 0 1-1.5-1.5 1.54 1.54 0 0 1 1.5-1.5H190a1.54 1.54 0 0 1 1.5 1.5 1.47 1.47 0 0 1-1.5 1.5Z" class="cls-5"/><path d="M934.3 318.9h-455a4.65 4.65 0 0 1-4.6-4.6v-79.7a4.65 4.65 0 0 1 4.6-4.6h455a4.65 4.65 0 0 1 4.6 4.6v79.7a4.65 4.65 0 0 1-4.6 4.6ZM934.3 417.8h-455a4.65 4.65 0 0 1-4.6-4.6v-79.7a4.65 4.65 0 0 1 4.6-4.6h455a4.65 4.65 0 0 1 4.6 4.6v79.7a4.65 4.65 0 0 1-4.6 4.6Z" class="cls-4"/><path d="M505.3 268.6h9.9v50.3h-9.9z" class="cls-4"/><path d="M515.1 282.3h10.3v36.6h-10.3zM803.7 367.4h9.9v50.3h-9.9z" class="cls-4"/><path d="M813.5 381.1h10.3v36.6h-10.3zM783.5 367.4h9.9v50.3h-9.9z" class="cls-4"/><path d="M746.19 386.8h50.3v9.9h-50.3z" class="cls-6" transform="rotate(-72.48 771.295 391.758)"/><path d="M793.4 381.1h10.3v36.6h-10.3zM670.1 268.6h9.9v50.3h-9.9zM680 282.3h10.3v36.6H680zM572.4 268.6h9.9v50.3h-9.9z" class="cls-4"/><path d="M535.11 287.92h50.3v9.9h-50.3z" class="cls-6" transform="rotate(-72.48 560.23 292.875)"/><path d="M582.2 282.3h10.3v36.6h-10.3z" class="cls-4"/><path d="m813.4 275.1 1.1-14.9a1.65 1.65 0 0 0-1.7-1.8h-8.6a1.71 1.71 0 0 0-1.7 1.8l1.1 14.9s-9 5.8-8.9 10.6c.1 3.7 2.3 21.4 3.3 29.2a4.32 4.32 0 0 0 4.3 3.8h12.4a4.32 4.32 0 0 0 4.3-3.8c1-7.8 3.2-25.5 3.3-29.2.1-4.8-8.9-10.6-8.9-10.6ZM773.6 275.1l1.1-14.9a1.65 1.65 0 0 0-1.7-1.8h-8.6a1.71 1.71 0 0 0-1.7 1.8l1.1 14.9s-9 5.8-8.9 10.6c.1 3.7 2.3 21.4 3.3 29.2a4.32 4.32 0 0 0 4.3 3.8h12.4a4.32 4.32 0 0 0 4.3-3.8c1-7.8 3.2-25.5 3.3-29.2.1-4.8-8.9-10.6-8.9-10.6Z" class="cls-5"/><path d="M174.3 512.2h955.8" class="cls-4"/></g><path d="m274.5 426.1-12.7 177.6a2.63 2.63 0 0 0 2.6 2.8 2.54 2.54 0 0 0 2.6-2.4l15.3-178ZM788.6 426.1l12.7 177.6a2.63 2.63 0 0 1-2.6 2.8 2.54 2.54 0 0 1-2.6-2.4l-15.3-178Z" class="cls-7"/><path d="M385.7 206.3s8.9 18.1 15.3 34.4 7.5 31.4 1.3 34.6c-8.7 4.5-18.4 4.8-29.6-16.4s-2.8-69.1 13-52.6Z" class="cls-8"/><path d="M337.8 536.9c.1 1.2-3.5 21.5-3.3 23s-15.3 5.4-22.8-1.3c0 0 1.1-26.5 1.1-30.5s24.3-2.4 25 8.8Z" class="cls-9"/><path d="M334.8 556.3s1.7 7.5 4.2 12.1 16.3 17.5 14.8 21.9-14.2 4.8-24 4.4-14.2-3.8-18.1-10.8-1.3-11.7-.8-25.3c0 0 .3-2.3.9-2.7 0 0 2 3.5 4.3 3.8s4.6-5.3 10.2-5.9 6.3 5 6.9 5 1.4-.9 1.6-2.5Z" class="cls-10"/><path d="M343.9 577.8s-7-3-20 1.9M341.4 572.3s-7-3-20 1.9" class="cls-11"/><path d="M387.8 533.4c.1 1.2-3.5 21.5-3.3 23s-15.3 5.4-22.8-1.3c0 0 1.1-26.5 1.1-30.5s24.4-2.4 25 8.8Z" class="cls-9"/><path d="M384.9 552.7s1.7 7.5 4.2 12.1 16.3 17.5 14.8 21.9-14.2 4.8-24 4.4-14.2-3.8-18.1-10.8-1.3-11.7-.8-25.3c0 0 .3-2.3.9-2.7 0 0 2 3.5 4.3 3.8s4.6-5.3 10.2-5.9 6.3 5 6.9 5 1.4-.8 1.6-2.5Z" class="cls-10"/><path d="M393.9 574.3s-7-3-20 1.9M391.5 568.8s-7-3-20 1.9" class="cls-11"/><path d="M293.1 317.6s-3 17.5 5.6 58.6c2.6 12.5 4.7 28.8 6.2 45.9 3.5 39 .5 78.8-1.3 94.5-2.6 22.5 8.9 26.8 21.3 27.8s17-4.7 17.6-11 8-90.3 10.8-109.3 3.1-45 2.2-48.8 9.9-3 5.4-50c-4.4-47.2-64.2-20.2-67.8-7.7Z" class="cls-12"/><path d="M379.2 319.9s15 64.2 16.8 84.2-1.9 118.1-1.8 124-5.3 11.2-18.7 11.5-18.8-8.6-18.7-13.4c.3-16 .5-79.7-.5-89.5s-15.6-58-18.5-62.6-9.3-39.2 3.3-45.2 32.4-15 38.1-9Z" class="cls-12"/><path d="M360.3 191.8s-25.6-.9-37.5-2.5-34.1-1.7-42.9 16.2 18.5 26.7 17.8 39.4-2.5 34.2-2.5 34.2-2.5 24.1-5.3 33.2 2.5 13.7 5 14.5 28.5 6.1 48.2 5 35.8-5.6 37.2-10-.9-17.3 0-30.8 3.5-37.1 3.5-46.1 4.4-31.8 0-41.2-15-11.6-23.5-11.9Z" class="cls-10"/><path d="M326.7 181.2s-4.1.6-5.5 3.3a17.12 17.12 0 0 0-1.9 8c.1 3.2 4.9 12 18.8 13.6s18.9-5.2 19.5-7.8-.4-9.6-1.4-10.8-2.4-2.6-7.4-3.2c-4.9-.8-20.5-3.7-22.1-3.1Z" class="cls-8"/><path d="M346.8 242a68.73 68.73 0 0 0 6.2-7.5c2.1-3.2 4.9-6.7 7.2-8s7.1-2.2 8.4-2.9 2.8 1.8 0 4.1-1.6 9-5.5 12.6-14.9 5.8-16.3 1.7Z" class="cls-13"/><path d="m375.9 182.8 50.5-3.3a2.37 2.37 0 0 1 2.5 2.7l-12.4 76.2a3.82 3.82 0 0 1-3.3 3.2l-48.3 6.6a2.44 2.44 0 0 1-2.7-2.6l10.2-79.4a3.6 3.6 0 0 1 3.5-3.4Z" class="cls-12"/><path d="m411.6 183-19.1 1a1.18 1.18 0 0 1-1.2-1.3l.3-2a1.6 1.6 0 0 1 1.5-1.4l19.1-1a1.18 1.18 0 0 1 1.2 1.3l-.3 2a1.7 1.7 0 0 1-1.5 1.4Z" class="cls-10"/><path d="M300.2 260.2s6.3-25.3 7.9-35-4.5-20.5-13.9-22.9c-11-2.7-14.4 3.1-14.4 3.1s-4.4 7.7-8.8 31.9-6.9 46.7 8.8 52.2 47.9-12.4 58.2-20.1 14.1-10.9 16.1-11.4 9.9 1.6 14.1-3.1 7.8-8.4 8.2-8.4 10.4 1.5 12.1.2c1.9-1.5-.9-3-2.9-3.3s-7.7-2.2-7.7-2.2 4.5-1.4 7.7-2.6 6.5-1.9 6.3-3.6-2.2-1.5-4.2-1.6a21.66 21.66 0 0 0-4.7.5s5.5-1.5 6.9-3.1.2-3-2.7-2.7a44 44 0 0 0-5.5 1s5.6-.5 5.2-3c-.3-1.7-5.3-.8-8.6-.4a97.69 97.69 0 0 0-11.1 2.1 36.32 36.32 0 0 0-6.1 2c-3.5 1.7-12.3 10.1-13.7 11.8s-19 4.5-33.4 7.7-22.8 5.8-27.2 9.9Z" class="cls-13"/><path d="M378.5 225.6a97.69 97.69 0 0 0-11.1 2.1 36.32 36.32 0 0 0-6.1 2" class="cls-14"/><path d="M350.4 260.2c-2.5 1.8-6.3 4.8-12.3 9.2-10.3 7.6-42.5 25.5-58.2 20.1s-13.1-28-8.8-52.2 8.8-31.9 8.8-31.9 3.4-5.8 14.4-3.1c9.3 2.3 15.5 13.1 13.9 22.9-1 6.1-3.9 18.5-5.9 26.8 3.5-1 7.5-1.9 12.1-2.9 10.2-2.2 22.1-4.3 28.6-5.9a16.94 16.94 0 0 0 1.1 10.8c2.3 5.2 6.3 6.2 6.3 6.2Z" class="cls-8"/><path d="M270.1 280s-.2-5.4 6.4-4.7 23.7 6.9 18.8 14.2M335 245a19.26 19.26 0 0 0 1.2 11.7 20.74 20.74 0 0 0 7.6 8.6" class="cls-15"/><path d="M325.9 165.5s-.3 12.8-1.1 20.8 14.1 11.3 21.3 9.9 8.3-3.6 8.3-3.6-.6-10.8 0-14.7-28.4-16.6-28.5-12.4Z" class="cls-13"/><path d="M354.2 189.7c-.1-1.6-.1-3.7-.1-5.8-6.1.3-11.5-5.3-15.9-9.9-1.2 9.6 7.1 15.8 16 15.7Z" class="cls-16"/><path d="M366 148.5s5-2.6 6.5-10.8-.3-20.4-5.9-21.8-1.7 15.8-5.5 19 4.9 9.1 4.9 13.6Z" class="cls-8"/><path d="M365.8 134.4a62.57 62.57 0 0 1 1.1 17c-.6 10.2 1.4 27.4-9.7 32.4s-25.8-.2-31.8-16.6-6.1-32.7 3.1-39.7 34-6.1 37.3 6.9Z" class="cls-13"/><path d="M326.6 154.1s3.4-1.1 3.5-7.2 3.3-11.3 9.9-9.5 15.8 6.9 21.2 6.8c6.4-.2 8.4-7.1 8.9-15.6s-2.3-13.8-5.6-12.9-6.1 3.7-10.2-1.5c-5.6-7-10.6-6.8-14.6-3.5-7 5.9-5.4 9-11.8 6.5-3.7-1.5-6.3-1.1-8.1 5.8s-1.1 8.8-5.4 8.2-1.6 22.2 5.4 27.3c.1 0 5.5-4.9 6.8-4.4ZM361 155.8c.4 1.1.6 2.2.9 3.2s.6 2.1.9 2.9a5.3 5.3 0 0 1 .5 1.9 2.81 2.81 0 0 1-.6 2 3.82 3.82 0 0 1-3.4 1.3 5.44 5.44 0 0 0 2.2-2 2.73 2.73 0 0 0-.4-2.4 8.75 8.75 0 0 1-.7-3.5 18.57 18.57 0 0 1 .6-3.4Z" class="cls-8"/><path d="M351.3 147.1a1.2 1.2 0 0 0 1.3-1.6c-.3-.9-.5-1.7-1.5-1.9a13.24 13.24 0 0 0-9.3 1.9c-2.7 2-.1 2.4 3.3 1.7a21.74 21.74 0 0 1 6.2-.1Z" class="cls-8"/><ellipse cx="346.7" cy="156.9" class="cls-11" rx="9.9" ry="10.3"/><ellipse cx="367.4" cy="156.9" class="cls-11" rx="6.4" ry="9.4"/><path d="M361.2 154.8s-1.3-1.8-4.8 0M337.2 154l-11.9-.9M352.7 174.2a8.87 8.87 0 0 1-6.8-4.7" class="cls-11"/><path d="M348.2 160.7a1.68 1.68 0 0 0 1.8-1.6l.1-1a1.68 1.68 0 0 0-1.6-1.8 1.68 1.68 0 0 0-1.8 1.6l-.1 1a1.63 1.63 0 0 0 1.6 1.8ZM363 161a1.68 1.68 0 0 0 1.8-1.6l.1-1a1.68 1.68 0 0 0-1.6-1.8 1.68 1.68 0 0 0-1.8 1.6l-.1 1a1.83 1.83 0 0 0 1.6 1.8Z" class="cls-8"/><path d="M326.2 154.4s-2.9-5-6.8-3.7-3.8 7.3-1.9 10.9a11 11 0 0 0 10.8 5.5" class="cls-13"/><path d="M319.3 158a2.85 2.85 0 0 1-.2-1.6 1.8 1.8 0 0 1 .4-.9 1.61 1.61 0 0 1 1.1-.5 2.34 2.34 0 0 1 1.8.8 7.1 7.1 0 0 1 1 1.4 17.15 17.15 0 0 1 1 2.6 3.6 3.6 0 0 0 .5.9c.2.2.7.2 1.2.2a1.58 1.58 0 0 1-1.5.7 3.31 3.31 0 0 1-1.5-1 21.75 21.75 0 0 1-1.4-2.5c-.4-.8-.8-1.4-1.2-1.5-.1 0-.2-.1-.3 0s-.2.1-.3.3-.4.6-.6 1.1Z" class="cls-8"/><path d="M378.5 241.3a22.3 22.3 0 0 0-3.3-.6 7.82 7.82 0 0 0-2.4 0M383.1 233.8s-10.2 2.2-11.1 2.9M381.9 229s-7 1.5-7.4 1.6c-1.3.4-3.7 1.1-3.7 1.1" class="cls-14"/><path d="M302.3 358.7s11.7-5 11.7-22" class="cls-11"/><path d="m190.1 497.9-5.8 120.4a2.34 2.34 0 0 0 2.4 2.5 2.4 2.4 0 0 0 2.4-2.2l10.1-120.8h-9.1ZM247.2 497.9l5.8 120.4a2.34 2.34 0 0 1-2.4 2.5 2.4 2.4 0 0 1-2.4-2.2l-10.1-120.8h9.1ZM229.1 474.2l-.1 120.5a2.39 2.39 0 0 1-2.5 2.4 2.56 2.56 0 0 1-2.3-2.3L220 473.7Z" class="cls-7"/><path d="M251.2 486.2a251.12 251.12 0 0 0-34-2.1 252.22 252.22 0 0 0-34 2.1h-18.8v6.8c0 4.9 23.6 8.9 52.8 8.9s52.8-4 52.8-8.9v-6.8Z" class="cls-8"/><ellipse cx="217.2" cy="486.2" class="cls-17" rx="52.8" ry="8.9"/><path d="M254.9 580.2s-1.3 9.6-3.1 12.5-4.8 10.1-4.7 11.8c.3 3.1 9.9 11 15.5 15.8s10.2 5 20.6 5.8 14.6-.8 14.6-4-2.1-4.7-6.7-10-11.8-12.8-14.2-17.1 2.4-10.8 4.6-14.8-22-11.3-26.6 0Z" class="cls-8"/><path d="M281.5 580.2c-2.1 4-6.9 10.5-4.6 14.8.2.4.5.8.7 1.2a8.31 8.31 0 0 0-6.8-3.4c-4.8 0-7.4 5.6-11.1 2.9-2.4-1.8-5.5-3.8-7.3-4.9a67.07 67.07 0 0 0 2.3-10.7c4.8-11.2 29-3.9 26.8.1Z" class="cls-9"/><path d="M251.3 416.9s4.2 10.2 6.3 13.1 53.6 7.9 59.1 28.8-27.1 109.1-30.6 117.4-4 15.6-15.8 14.4-21.3-8.8-19-17.1 11.3-30.4 15-56.9 17.1-32.1-6.9-40.2-43.1-5.5-36.5-27.9 23.8-34 28.4-31.6Z" class="cls-10"/><path d="M288.5 594.8s4.2 15 4.2 16.6-2.7 14.5-2.1 18.3 5.8 5.9 12.7 12.2c7.4 6.9 13.4 6.5 22.5 5.8 7.8-.6 18.2-4.4 19.3-7.5s-.1-5.3-6.3-8.6c-5.5-3-19.3-18.3-20-20s-4.9-24-5.1-26.1-27.7 3.6-25.2 9.3Z" class="cls-8"/><path d="M318.1 609.5c-2.1-2.6-5.1-4.8-9.1-2.4-4.2 2.5-4.6 7.9-6.8 8.2s-2.4-2.8-5.3-3.7a10.74 10.74 0 0 1-4.7-2.8c-1.1-4.7-3.7-14.1-3.7-14.1-2.5-5.7 25-11.5 25.1-9.3.2 1.9 3.2 18.1 4.5 24.1Z" class="cls-9"/><path d="M324.8 620.4s-5.2-2-15.4 3.1M332 626.8s-7.7-2-17.9 3.1" class="cls-18"/><path d="M180.9 415.3s-4.8 12.6-7.7 20.5-6.6 24.1 1.7 37.2 24.3 15.4 50 18.6c25.4 3.1 30.9 5.1 30.9 5.1A455.31 455.31 0 0 0 271 548c9.4 25.4 12.9 40.2 13.3 43.8s2.3 7.1 8.6 8.6 22.7-2.1 23.8-9.4-6-29.6-10.6-59.2-6.7-54.4-15.4-65.9-43-12.7-43-16-50.1-42.6-66.8-34.6Z" class="cls-10"/><path d="M306 531.8c-4.6-29.6-6.7-54.4-15.4-65.9s-41.3-14.7-43-16a36.12 36.12 0 0 0-19.1-5.4" class="cls-11"/><path d="M247.6 449.9s.8-5.2 0-7.6M174.9 453.8s16.7-.3 20.4-18.5M255.7 496.7a11 11 0 0 1 3.8-8.1" class="cls-11"/><path d="M290.1 610.8s-2.1-5.7-18.9-1.1M281.7 601.8s-1.6-4.2-15 1.5" class="cls-18"/><path d="m688.8 235.3-134.6-5.5c-2.9-.1-4.9-2.8-4.5-6.1l11-80.9a7 7 0 0 1 6.1-6l134.6-5.5a5.42 5.42 0 0 1 5.9 6.2l-11 91.3a7.31 7.31 0 0 1-7.5 6.5Z" class="cls-19"/><path d="m686.5 233.6-134.6-5.5c-2.9-.1-4.9-2.8-4.5-6.1l11-80.9a7 7 0 0 1 6.1-6l134.6-5.5a5.42 5.42 0 0 1 5.9 6.2l-11 91.3a7.38 7.38 0 0 1-7.5 6.5Z" class="cls-12"/><path d="M579.6 181.4h35.6M611.4 210.7l-19.2-.5a4.88 4.88 0 0 1-4.6-5.8l6.1-45.9a6.7 6.7 0 0 1 6.1-5.8l19.2-.5" class="cls-20"/><path d="m640 157.5-22.3.4a2 2 0 0 1-2-2.3l.9-6.7a2.77 2.77 0 0 1 2.6-2.4l22.3-.7a2.05 2.05 0 0 1 2.1 2.3l-.9 6.8a2.88 2.88 0 0 1-2.7 2.6ZM678.4 187.4l-23.9-.1a2.12 2.12 0 0 1-2.1-2.5l.9-7a2.87 2.87 0 0 1 2.7-2.5l23.9-.1a2.14 2.14 0 0 1 2.2 2.5l-.9 7.1a2.82 2.82 0 0 1-2.8 2.6ZM632.5 217.1l-22.3-.6a2.06 2.06 0 0 1-2-2.4l.9-6.8a2.59 2.59 0 0 1 2.6-2.3l22.3.4a2.17 2.17 0 0 1 2.1 2.5l-.9 6.9a2.78 2.78 0 0 1-2.7 2.3Z" class="cls-10"/><path d="M639.4 181.3h13.5" class="cls-20"/><path d="m636.3 187.2-22.3-.1a2.06 2.06 0 0 1-2-2.4l.9-6.7a2.77 2.77 0 0 1 2.6-2.4l22.3-.1a2.13 2.13 0 0 1 2.1 2.4l-.9 6.9a2.87 2.87 0 0 1-2.7 2.4Z" class="cls-9"/><path d="M579.6 181.4c.5-3.7-1.9-6.6-5.3-6.6s-6.5 3-7 6.6 1.8 6.6 5.2 6.6a7.56 7.56 0 0 0 7.1-6.6Z" class="cls-10"/><path d="M675.6 478.6v6.8c0 4.4-22.1 8-49.5 8s-49.5-3.6-49.5-8v-6.8h23.3a286.62 286.62 0 0 1 52.4 0Z" class="cls-8"/><ellipse cx="626.1" cy="478.6" class="cls-17" rx="49.5" ry="8"/><path d="M626.1 567.4a2.26 2.26 0 0 1-2.3-2.3v-78.4h4.7v78.4a2.35 2.35 0 0 1-2.4 2.3Z" class="cls-8"/><path d="M626.1 564.9s-27.2 2-35.8 20.1M662 585c-8.7-18.1-35.8-20.1-35.8-20.1s-4.5 3.5-6.4 24.2" class="cls-21"/><circle cx="619.69" cy="591.34" r="7.3" class="cls-10"/><circle cx="661.95" cy="586.48" r="7.3" class="cls-10"/><circle cx="590.29" cy="586.44" r="7.3" class="cls-22"/><path d="M653.1 404.9c4.8 11.5 13.3 30 13.2 50.8 0 25.2-30.5 35.5-33.6 39.5s-66.6 8.4-73.1-4.3-6.1-26.1 11.3-58.2c11.6-21.5 10.1-27.5 10.2-27.8 0 0 1.6 1.7 2.3-5s66.8-1.8 69.7 5Z" class="cls-8"/><path d="M574.7 464.8c-6.2 1-16.6 4.3-17.7 20.8s12.1 80.5 12.3 91.8-.9 11.8-8.6 18.7-23 14.4-21.7 19.7 18.8 9.8 30.3 7.7 14.1-15.2 16.3-16.3 3.6-5.2 3.9-7.8 8.4-94.4 9.2-107.9c1.1-16.7-5.8-29.6-24-26.7Z" class="cls-9"/><path d="M590.3 591.6c-.4 4.4-.7 7.2-.7 7.7-.3 2.7-1.7 6.7-3.9 7.8s-4.7 14.2-16.3 16.3-29.1-2.4-30.3-7.7c-1-4.1 8.1-9.6 15.8-15.1-.2.2-2.4 2.4 0 2.9s7-1.4 15.6 3.4 11.1-2.7 12.8-7.8c1.5-4.3 4.5-2.9 7-7.5Z" class="cls-8"/><path d="M604.9 467.8c-7.5 5-10.5 11.1-11.9 34.1-1.9 31.6-5.3 81.3-6.9 86.6s-3.6 7.7-5.5 13-18 20.6-17 26.4 10.2 11.6 16 13.5 12.7 2.7 16.9 0 6.3-19.6 7.4-23.6 2.3-7 3.3-14.1 8.3-39.1 11.4-48.3 17-53.9 17.4-71.4c.2-17.5-20.1-23.4-31.1-16.2Z" class="cls-9"/><path d="M604.9 467.8c-7.5 5-10.5 11.1-11.9 34.1-1.9 31.6-5.3 81.3-6.9 86.6s-3.6 7.7-5.5 13" class="cls-23"/><path d="M608.3 597.4a56.22 56.22 0 0 0-1.1 6.3c-.9 7-2.2 10-3.3 14.1s-3.1 21-7.3 23.6-11.1 1.9-16.9 0-15-7.7-16-13.4c-.7-4.2 7.5-13.3 12.8-20.1-.3.4-4.1 6.1 2.7 11.1 5.9 4.4 16.9 7.1 19.7.5s4.3-12.8 5.6-14.8a22.53 22.53 0 0 0 3.8-7.3Z" class="cls-8"/><ellipse cx="583.18" cy="620.61" class="cls-24" rx="4.1" ry="5.5" transform="rotate(-69.83 583.193 620.614)"/><path d="M566.1 605.5c-.3 2.1-2.9 3.4-5.7 3s-4.9-2.5-4.6-4.6 2.9-3.4 5.7-3 4.9 2.5 4.6 4.6Z" class="cls-24"/><path d="M583.5 321.3s-13.6.2-22.8 20.5-23.8 48.9-21.7 61 30 0 43.2-22.7 11.9-58.2 1.3-58.8Z" class="cls-10"/><path d="M594 280.9s-6.9-.4-9.1-9.3 6.9-20 15.3-22.7 10.5 2.5 16 3.1 20.2-1 26.1 12.1-3.9 25.5 3.6 35.3 13.8 28-8.3 35.8-47.5 1.7-55.4-12.4 7.3-22.4 9.6-29.7c2.5-7.2 3.6-9 2.2-12.2Z" class="cls-8"/><path d="M616.4 316.1s-20.4-.2-31.5 4c-3.3 1.2-6.1 3.3-6.9 13.7-.7 9.4-1.2 9.3-3.8 13.9-4.1 7.4-5.8 15.9 2.1 29.7 5.1 9 3.5 25.9 2.7 34.4s.2 12.3 16.7 16.5 51.9 0 55.9-4 5.8-43.6 5-51.3 14-28.2 12.9-36.3-10.7-19.2-53.1-20.6Z" class="cls-12"/><path d="M605.2 314.4s-9.2.4-12.2 3.5c-2.1 2.2-.4 3.6 2.1 5.5 1.7 1.3-4.3 4.7-1.2 8.6 2.3 2.9 7.5-.7 9.5 2 2.3 3.2 2.7 4.4 6.2 4.5 4.4.1 4.8-4.6 8.1-4.1 4 .6 4.9 2 7.8 1.7 4.5-.5 4.6-5 4-7.7s1-2.8 4.5-3.8 4.2-7.8-8.7-9.7-20.1-.5-20.1-.5Z" class="cls-24"/><path d="M628 296.3a106.66 106.66 0 0 0-1.9 20.9 15.21 15.21 0 0 1-15.5 9.8c-11.2-.6-8.6-9.6-8.6-9.6s2.7-10 2.8-12.6 20.4-11.2 23.2-8.5Z" class="cls-9"/><path d="M619.1 307.7c-4.8 3.2-10.4 5.1-15.7 4.7l-1.3 5s-.1.5-.2 1.3c7.8-.2 14.8-3.7 17.2-11Z" class="cls-25"/><path d="M592.7 270.9a93.48 93.48 0 0 1-1.1 16.6c-1.4 8.6.1 22.2 9.4 25.4 12.9 4.4 26.3-4.4 29.6-17.2s5-28.5-11.4-33.2-25.6 2.1-26.5 8.4Z" class="cls-9"/><path d="M592.2 274.5s-.7-3.1 2.2-3.7a41.52 41.52 0 0 0 8.3-3.1c1.9-.9 4.3-.6 6.2 3.6 4.2 9 9.5 22.5 20.5 18.7 0 0 4.2.9 5.4-6.1s.7-16.4-11.5-22.1-26.2-1.8-28.8 1.1c-4 4.5-2.3 11.6-2.3 11.6Z" class="cls-8"/><path d="M624.7 291.4s4.5-6.2 8.7-2.6-1.6 12.7-7.4 12.4" class="cls-9"/><path d="M631.2 301.9c0-1.4-1.2-4-2.6-4s-2.6 2.6-2.6 4a2.65 2.65 0 0 0 2.6 2.6 2.58 2.58 0 0 0 2.6-2.6Z" class="cls-12"/><path d="M631.9 293c-.4-.2-.7-.5-1-.6a.58.58 0 0 0-.7 0c-.1 0-.1.1-.2.2s-.2.2-.2.3a6.37 6.37 0 0 0-.2.7c-.1.6 0 1.4-.2 2.3a2 2 0 0 1-.9 1.3 1.7 1.7 0 0 1-1.4 0c.4-.2.7-.4.8-.7a2 2 0 0 0 .1-.8 15.52 15.52 0 0 1-.1-2.3 2.4 2.4 0 0 1 .6-1.5l.6-.6a3.18 3.18 0 0 1 .9-.3 1.55 1.55 0 0 1 1.4.8 1.58 1.58 0 0 1 .5 1.2ZM596.1 286.9a4.76 4.76 0 0 1 .2 2.9 5.67 5.67 0 0 1-1.3 2.7c-.2.3-.3.3-.3.6a2.3 2.3 0 0 0 .3.9 6.07 6.07 0 0 0 .7 1c.3.3.6.7 1 .8a2 2 0 0 1-1.5-.1 5.67 5.67 0 0 1-1.3-.8 2.72 2.72 0 0 1-.8-1.6v-.5a4.33 4.33 0 0 1 .1-.5c.1-.2.1-.3.2-.5s.2-.3.3-.4a15.9 15.9 0 0 0 2.4-4.5Z" class="cls-8"/><path d="M600.6 301.1a9 9 0 0 0 6.4-1.8" class="cls-11"/><path d="M604.9 279.3a2.47 2.47 0 0 1 .4-1.9c.8-1 3.4-1.1 5.4.2s2.8 3.1 2.2 3.3c-.9.3-1.8-.9-3.9-1.1s-3.7.6-4.1-.5ZM594.6 279a.78.78 0 0 0 1-.7 3.29 3.29 0 0 0-.2-2c-.6-.9-2.2.1-2.7.8s-.3 1.9 0 1.9a5.72 5.72 0 0 1 1.9 0ZM606.9 288.7a1.37 1.37 0 0 0 1.5-1.3l.1-.8a1.37 1.37 0 0 0-1.3-1.5 1.37 1.37 0 0 0-1.5 1.3l-.1.8a1.37 1.37 0 0 0 1.3 1.5ZM594 287.7a1.37 1.37 0 0 0 1.5-1.3l.1-.8a1.37 1.37 0 0 0-1.3-1.5 1.37 1.37 0 0 0-1.5 1.3l-.1.8a1.51 1.51 0 0 0 1.3 1.5Z" class="cls-8"/><path d="m457.4 443.4 5.8 135.6a2.54 2.54 0 0 1-2.4 2.8 2.6 2.6 0 0 1-2.4-2.5l-10.1-136h9.1ZM469.9 427.5l5.5 129a2.44 2.44 0 0 1-2.3 2.7 2.39 2.39 0 0 1-2.3-2.3l-9.6-129.4ZM366.5 443.5 348.3 578a2.58 2.58 0 0 0 2.1 3 2.57 2.57 0 0 0 2.6-2.2l22.5-134.5Z" class="cls-7"/><path d="M487.9 299.6s5.9 2.7.8 26.4-14.5 55.1-13.2 90.6-22 50.2-60.1 47.5 21.7-110.3 21.7-110.3 42.9-63.9 50.8-54.2Z" class="cls-5"/><path d="M385.7 306.8c1-4.4 3.1-11.5 11-14.4s90.9-1.5 92 8.8-20.6 58.3-20.5 92.7 6.2 62.9-34.3 68.6-83.9-2.7-79.5-16.5 17.8-32.3 21.9-70.2 5.7-52 9.4-69Z" class="cls-24"/><path d="M366.9 416.9s-30.5 38.2-31.4 50.9 50.1 12.2 50.2 9.6 8.6-17.4 12.6-17.7c2.6-.2 6.6-.4 7.3 2.8 1 4.5 0 13.9 0 13.9l43.9 20.6 4.3-18.3s7.4-11.9 7.4-31.5-5.7-48.5-5.7-48.5-83.6 8.8-88.6 18.2ZM402.9 601.1s-2.7 1.8-3.3 6.3-3 11.2-4.6 16.7-6.3 16.2-3.9 18c3.4 2.7 12.4 4.6 22.8 5.5s15.4.3 17-2.7-1.8-20.2-2.4-26.7 0-13.3-1.2-15.6-19.6-7.7-24.4-1.5ZM366 595.3a26.11 26.11 0 0 0-2.4 5.9c-1.2 3.9-11.8 20.3-11.7 25.5s10.2 5.3 14.1 5.5c4.7.2 16.6-.7 20.5-3.4s4-12 4.3-15c.6-6 .5-9.6-.9-18.6-.4-2.9-4.8-3.7-7.2-2s-14.9-1.8-16.7 2.1Z" class="cls-8"/><path d="M404.5 589.2s-1.8 13.1-2 14.7 2.7 5.1 11.1 6.9c7.2 1.6 11.5-1.1 12.2-2.1s4-17.7 5.1-21.5-24.1-2.5-26.4 2ZM363.6 586.4s2.7 9.2 2.7 10.4 4.6 3.7 11 3.5 11.8-3.7 11.8-5.4-1.9-18-1.9-18-23 4.9-23.6 9.5Z" class="cls-9"/><path d="M400.8 624.4a26.41 26.41 0 0 1 23.9 5.5M404 617.1s12.1-2.2 19.8 4.1" class="cls-18"/><path d="M403 606.4a4.62 4.62 0 0 0 4.3 0c2.3-1.2 4.7-3.4 9.4-2.5 5.7 1.1 6.8 7 9.9 4.4 0 0 .1 4-7.7 4.4s-15.8-5-15.9-6.3ZM365.9 597s1.1 1.2 2.9-.5 1.6-3.6 6.5-4.3c3.2-.4 5.9 1.9 8.3 3.8s4.8-.7 5.3-2.9c0 0 1.6 5.7-.6 8.5-1.6 2.1-7.8.6-11.5.7s-11.7-1.7-11.7-1.7Z" class="cls-8"/><path d="M359.1 611.7s9.4-5.8 22.3 2M363.6 605.7s8.2-5.8 19.5 2" class="cls-18"/><path d="M417.4 456.7s-12.1 1.7-12.9 31.9-3.3 78.7-6.7 85.5-2.2 14.8 4.1 18 13.6 6.9 22.8 5.9 13.6-6.3 13.6-17 3.9-40.7 9.9-65.1 10-48.5-2.2-57.2-28.6-2-28.6-2ZM345.7 454.3s-18.2 2.3-7.9 47.4 17.2 68.8 15.6 75.7 3.4 10.6 9.1 11.9 16.6 1.1 22.8-2.4 6.9-9.1 4.4-19.8-3.1-53.5-3.4-68.2 3.4-39.7-14.4-46.9-26.2 2.3-26.2 2.3Z" class="cls-8"/><ellipse cx="357.1" cy="469.8" class="cls-15" rx="14.5" ry="14.3"/><ellipse cx="428.8" cy="480.8" class="cls-15" rx="14.5" ry="14.3"/><path d="M462.2 267.8s5.9-1.9 7.8-6.2 1.7-17.3-1.8-21.4-13.3-2.3-19.5-4.1-10.5-5.8-22-3.6-22.1 12.5-22.6 18.1 2.8 7.9 1.6 11.5-2.8 7.1 2.8 12.6 3.4 9.1 7.6 9.1-3.4-12.8 2-23.8 41.1-4.6 44.1 7.8Z" class="cls-8"/><path d="M346 334s-13.2 17.4-15.5 30.5 4.8 21.6 13.6 23 38.3-37.1 39.7-44.9-33.6-14.7-37.8-8.6Z" class="cls-9"/><path d="M388.1 300s-6.7-1.9-22.8 12c-13.5 11.6-24.2 22.7-24.2 22.7s28.4 25.8 32.3 32.5c0 0 17.5-20.2 19-40.6s-1.8-27.4-4.3-26.6Z" class="cls-17"/><path d="M346 330.1s20.5 16.5 31.6 31.7" class="cls-11"/><path d="M380.2 308.5c2.5-5.6 7.5-9.7 13.7-9.9 6-.2 15.1-.1 28.3.8 28.4 2 50.3 10.1 56.1 14.3s-1.3 30.2-7.3 44.6-12.5 27.5-13.6 32.5 2.9 28.6.8 33.4-24.4 13.1-52.8 11.5-40.2-10.8-41.1-14.2 2.7-32.9 4.4-43 2.9-32.3 3.1-35.5c1.8-20.6 5.8-28.7 8.4-34.5Z" class="cls-8"/><path d="M504.2 355c-7.1-12.2-31.7 12.1-31.1 17.5 0 0 4.4 9.2 4.4 10.2s-4.4 26.3-7.4 40.5c-.9 4.4-3.6 9.3-6.9 14a153.9 153.9 0 0 0 23.8 6.9c10.6-18.5 22.8-46.8 24.7-53.8 3.5-13.1-.4-23.1-7.5-35.3Z" class="cls-9"/><path d="M477.5 382.7a12.69 12.69 0 0 1 6.4-6.2" class="cls-23"/><path d="M478.3 313.6s8.1 4.5 16.1 18 14.2 25.8 14.2 25.8l-35.2 18.4s-10.2-16.7-14.4-24.2-4.6-22.9 1.3-31.5c5.7-8.5 15.2-8.4 18-6.5Z" class="cls-17"/><path d="M470.1 370.5s20.5-13.5 35.6-18.5" class="cls-11"/><path d="M468.1 428.8s-14.1 1.4-17.3 3.2-8 12.7-7.6 13.7 3.4 0 3.4 0-.4 2.1 2 2.1 2.8-1 2.8-1a2.11 2.11 0 0 0 2.4 2.5c2.8-.2 8.6-5.2 8.6-5.2s-3.1 5.5-1.2 6.8 6-3.3 6.6-4.2 16.5 8.7 22.6-9c0 0-11.5-12.5-22.3-8.9Z" class="cls-9"/><path d="M408.8 298s-4.8.5-5.8 1.4-4 8.7 0 16.8 15.6 12.1 27.4 8.4 16.8-15 16.4-18.5-2.5-4.6-6.8-5.7-31.2-2.4-31.2-2.4Z" class="cls-17"/><path d="M414.5 272.9s.3 9.2-2 16.7a42.34 42.34 0 0 1-3.6 8.3 13.8 13.8 0 0 0-1.6 4.7c-.6 4.1-.3 11.2 7.2 14.6 12 5.4 24.6-4.5 26.3-12.4 0 0 .7-8.2 2.5-11.5s-23-23.5-28.8-20.4Z" class="cls-9"/><path d="M440 307.1a12.67 12.67 0 0 0 .8-2.3 33 33 0 0 1 .5-3.7 30.9 30.9 0 0 1-20.1-12.7c.6 9.8 9 17.3 18.8 18.7Z" class="cls-25"/><path d="M339.2 385.9s4.9 5.5 26.7 0 49.9-20.7 54.1-22.2 5.8-.8 10.3-.8c10.7.2 15.1-.8 16.5-1.5 2.8-1.4 4.1-3.5 3.6-5.3s1-2.3 1.3-3.9c.5-3-.6-3.4-.3-3.6s3.3-1.1 3.9-1.9c1.5-2.3.3-3.8.3-3.8a56.06 56.06 0 0 1 8.3-1.4c4.5-.4 7.2-2 5.9-3.6s-10.1-1.1-15.8-1.1-7.7.1-8.1-.1c-2.2-.7-6.5-2-8.6-1.8s-4.5 1.9-8.6 4.1a62.06 62.06 0 0 1-14.7 5.5c-4.6 1.2-35.5 3.6-54.6 7.2-2.7.5-5.2 1-7.3 1.6a35 35 0 0 0-6.1 2.1c-10.4 5.6-19.5 20.3-6.8 30.5Z" class="cls-9"/><path d="M455.5 342.9s-2.6-.4-3.5-.6a15 15 0 0 0-2.4-.2M451.4 348.6s-1.8.5-2.5.8M450.4 355a29 29 0 0 1-2.7 1.4" class="cls-23"/><path d="M420 363.7c-7.7-9.1-3.8-19.8-3.8-19.8l-8.6 1.6c-4.9 12.1 3.8 22.3 3.8 22.3Z" class="cls-8"/><path d="M445.8 336.7s-5.4.1-6.3.5M359.4 351.7c-2.7.5-5.2 1-7.3 1.6a35 35 0 0 0-6.1 2.1" class="cls-23"/><path d="M416 355a5.2 5.2 0 1 0-5.2 5.2 5.36 5.36 0 0 0 5.2-5.2Z" class="cls-24"/><path d="M463.4 250.8s2.2 6.6-.9 16.4-5.2 13.5-7.8 21.3-8.9 14.6-19.6 13.5c-11.2-1.2-20-11.4-20.5-24.1s-1.6-32.5 13.5-36c14.9-3.4 32.7 5.5 35.3 8.9Z" class="cls-9"/><path d="M453.5 272a18.84 18.84 0 0 0 .2 3.4c.1.5.2 1.1.3 1.6.1.3.1.5.2.8l.1.4.1.5a4.1 4.1 0 0 1 0 2.2 3.41 3.41 0 0 1-1.4 1.7 4.87 4.87 0 0 1-3.7.5 10.33 10.33 0 0 0 2.8-1.6 2 2 0 0 0 .5-2.3l-.1-.3-.1-.5c-.1-.3-.1-.6-.2-.9a12.1 12.1 0 0 1-.1-1.9 9 9 0 0 1 1.4-3.6ZM417.2 266.6s3.3-.8 5.4-9.5c0 0 .7-2 4.2.7s9.3 7.1 19.5 2.3 11.5-6.4 12.9-4.7c0 0 1.5 7.6 6.7 5.2s2.4-15.9-14.8-20.3-29.4-2.9-34.9 6.7-3.4 19 1 19.6Z" class="cls-8"/><path d="M448.6 263.4a3 3 0 0 0 .4-3.4c-1.1-1.7-8.6-2.9-10.4-1.4s2.7 1.7 4.8 2.7 4.6 2.8 5.2 2.1ZM457.9 267.7a2.92 2.92 0 0 1 1.5-1.6c1.1-.5 3.4 1.8 3 3.3s-1.5-.2-2.5-.4c-1-.4-2.3-.7-2-1.3ZM442.9 269.2a1.53 1.53 0 0 0-1-2 1.53 1.53 0 0 0-2 1l-.2.5 2.9 1.1ZM457.9 274.8a1.58 1.58 0 0 0-3-1l-.2.5 2.9 1.1Z" class="cls-8"/><path d="M419 268.3s-1.7-6.8-6.7-6.7-7.3 13.7 4.2 15.8" class="cls-9"/><path d="M411.5 267.8a2 2 0 0 1 .5-1.4 1.27 1.27 0 0 1 .9-.4 2.39 2.39 0 0 1 .9.2c.1 0 .3.2.4.3s.2.3.3.4.1.3.2.4.1.3.1.4a6.15 6.15 0 0 1 .1 1.3v2.3a1.61 1.61 0 0 0 .3.9 2.18 2.18 0 0 0 .9.7 1.7 1.7 0 0 1-1.4 0 2.16 2.16 0 0 1-1.1-1.2 6.46 6.46 0 0 1-.5-2.7c0-.8-.1-1.7-.1-1.7a.71.71 0 0 0-.6-.3 8.18 8.18 0 0 1-.9.8ZM442.6 289.6a10.62 10.62 0 0 0 1-1.7 1.58 1.58 0 0 0-.9-2.2 15.23 15.23 0 0 1-3.8-2.3c-3.1-2.5-4.5-.3-4.3 2.5 3 .3 5.7 2.2 8 3.7Z" class="cls-8"/><path d="M434.6 285.8c.2 2.4 1.5 5.3 4.1 5.7a4 4 0 0 0 3.9-1.9c-2.3-1.5-5-3.4-8-3.8Z" class="cls-26"/><path d="m234.9 451.4-14.7 205a3.05 3.05 0 0 0 3 3.2 3 3 0 0 0 3-2.7l17.7-205.4h-9ZM828.2 451.4l14.7 205a3.05 3.05 0 0 1-3 3.2 3 3 0 0 1-3-2.7l-17.7-205.4h9Z" class="cls-7"/><path d="M859.5 447.1H203.6l75-30.2h505.8l75.1 30.2z" class="cls-24"/><path d="M203.6 447.1h656v7.5h-656z" class="cls-7"/><path d="M464.4 411.9h42.1a5.5 5.5 0 0 1 3.2 1l38.2 25.5a1.52 1.52 0 0 1-.8 2.8h-60.9a4.41 4.41 0 0 1-3.6-1.8l-19.4-25a1.54 1.54 0 0 1 1.2-2.5Z" class="cls-12"/><path d="M490.4 433.3h39.3" class="cls-27"/><path d="m518.8 425.8-8.2-6.2a1.92 1.92 0 0 0-1.2-.4h-10.7c-.4 0-.5.4-.3.7l6.2 6a2 2 0 0 0 1.4.6h12.6c.4 0 .5-.4.2-.7Z" class="cls-8"/><path d="M496.6 426.5h-10.8M493.1 422.4h-9.7" class="cls-27"/><path d="m707.5 445.3-12 .9a8.2 8.2 0 0 1-3.1-.3l-54.8-15a2.91 2.91 0 0 1-2.1-2.8l93.2-2.3Z" class="cls-17"/><path d="m694.1 441.9 23.2-61.7a5.5 5.5 0 0 1 5.3-3.6l95.2 1.8a3 3 0 0 1 2.7 4.2l-22 53.9a5.71 5.71 0 0 1-4.8 3.5l-96.6 6.1a3.23 3.23 0 0 1-3-4.2Z" class="cls-8"/><path d="m697.5 446.1-2 .1a8.2 8.2 0 0 1-3.1-.3l-54.8-15a3 3 0 0 1-2.1-2.8l60.1 14.4Z" class="cls-8"/><path d="M774.6 409.9c-1.1 3.8-5 6.9-8.8 6.9s-6-3.1-4.9-6.9 5-6.9 8.8-6.9 6 3.1 4.9 6.9Z" class="cls-17"/><path d="M237.6 314.5s9.8-2.7 18.4 12.7 12.9 44 15.6 46.9 7.1 5.1 21.3 14.2 15 9.4 27.3 10.9 13.1 5.7 16.9 9.9 6.5 7.1 2.9 7.4-7.5-4.9-9.8-3.4a23.55 23.55 0 0 1-8.1 3.8c-4.2 1-2.9 2.7-6.8 2.3s-11.5-.2-9.1-2.3 0-2.6 0-2.6-42.3-5.7-56-16.8-17.3-47.9-20-60.1 4-22.9 7.4-22.9Z" class="cls-28"/><path d="M271.6 374.1a13.44 13.44 0 0 0-6.5 1" class="cls-29"/><path d="M242.4 265.8s7.4-7 4.5-16.1-11.9-10-19.2-7.8-27.3-1.5-34.6 9.6-2.7 21.1-7.3 24-11.1 5-10 12.3 20.6 17.9 14.6 26.3-11.7 27.9 11.5 39 24.6-15.4 26.1-30.8-3.1-33.2 3.5-39.8c6.7-6.8 12.2-10.5 10.9-16.7Z" class="cls-8"/><path d="M208.6 310.9s26.5.6 31.1 2.7 6.7 9.2 8.1 14.6 11.9 11.9 13.8 23.8-8.3 25.7-8.8 27.9-.6 24.6.6 29.2 3.3 12.1 3.1 15.4-14.2 9.8-35 8.6-42.6-11.7-43.3-14 6.2-13.1 4.3-35.7-12.7-46.9-4.8-60.3c7.9-13.2 26.9-12.3 30.9-12.2Z" class="cls-8"/><path d="M207.6 291.9s1.1 11.6.9 19c0 0 2.9 6.2 12 8 11 2.3 13.2-4 11.7-6.7 0 0-2.6-9.6-2.9-16.2-.2-6.4-21.2-5-21.7-4.1Z" class="cls-28"/><path d="M216.6 301.5c4.1 6.4 8.3 9 15.5 9.5-.4-1.4-.9-3.9-1.5-6.6-5.7.7-8.4-1.3-14-2.9Z" class="cls-30"/><path d="M203.8 310.9a49.07 49.07 0 0 1 11.6 12c5.7 8.2 13 14.3 18.1 13.7s7.5-7.3.9-24.1c0 0-16-2.6-30.6-1.6Z" class="cls-28"/><path d="m298.1 405.5 41.9-2.6c.5 0 1.1-1.1 1.3-.7a10.82 10.82 0 0 1 0 1.8 1.4 1.4 0 0 1-.3.9l-31.6 32.4a6.13 6.13 0 0 1-5 1.8l-41.2-4.1a1 1 0 0 1-.9-.6 19.12 19.12 0 0 1-1.6-3.2c0-.3 2.3-.3 2.6-.5l32-24.1a5 5 0 0 1 2.8-1.1Z" class="cls-17"/><path d="m297.6 402.9 42.5-1.8a1.23 1.23 0 0 1 .9 2.1l-32.7 32.2a6 6 0 0 1-5.1 1.7l-41.7-5.1a1.22 1.22 0 0 1-.6-2.2l33.7-25.9a5.14 5.14 0 0 1 3-1Z" class="cls-8"/><path d="M316.4 401s-1.1.2-1.1 2.3.8 7.7-1.3 8.1-3-2.1-4-4.3-4-2.3-5.9-5.5M239.8 255.1a58.09 58.09 0 0 1 3.2 16.4c.3 8.8 3.3 13.8 1.6 21.4s-7.7 13.5-15.1 13.8-18.2-6.3-24.1-14.2-7.7-24.4-4.2-32.4c3.3-7.9 29.5-16.2 38.6-5Z" class="cls-28"/><path d="M243.2 263.7a7.62 7.62 0 0 1-7-3.9s-6.5 15-17 16c-7.2.7-8.6-2.7-11.6 0s5.7 18.3 3 31-15.5 16.2-24.5 8.4c-11.3-9.9 1-11.8 3.3-25.8s0-24.6 7.4-32.7 14.7-13.1 26.4-12 16.6 2.9 20 19Z" class="cls-8"/><path d="M212.3 273.9s-.7 5.3-.4 7-3.1-1.9-6.2.4c-1.7 1.3-3.3-6.9 0-9.4s5.1-.4 6.6 2Z" class="cls-8"/><path d="M210.4 281s-3.8-4.9-7.9-1.9 1.2 12.1 7.4 11.4M294.5 428.4s5.7 4.7 7.9 6.3.8 3-1.6 3-10.3-6.3-6.3-9.3Z" class="cls-28"/><path d="M181.2 319a12.48 12.48 0 0 0-5.6 5.3 35.78 35.78 0 0 0-3.3 24.7c3.7 16.9 12.4 42.3 16.3 48.3s22.2 18 35.1 26 22.8 12.4 25.2 14.2 7.2 6.4 16.3 7.5 12.1-2.2 14.9-1.5 7.5 3.9 10.1 3.6 1.2-2.3.2-3.3-6.9-6.3-6.9-6.3a77 77 0 0 1 8.8 4.6c4.4 2.6 6.5 2.7 7.7 2.6s2.6-.5 2.4-1.6a1.94 1.94 0 0 0 2.2-.2c1-.9 1.3-1.7-1.1-4.4s-8.5-9.8-11.5-12.9-6.5-3.4-13.9-3-17.8-1.2-18.1-.9-32.1-33.4-41.7-43c0 0-7.7-25.1-10-35.9-4.7-21.7-16.1-29-27.1-23.8Z" class="cls-28"/><path d="M302.4 443.2s0-1.2-3-3.3-7.7-6.6-9.2-7.7a19.59 19.59 0 0 0-3.6-2.5M283.5 437.6s-2.3-2-3.4-1.7M218.3 378.7a11 11 0 0 0-8.4 3.3" class="cls-29"/><path d="M239.3 276.8c.7.9 1.3 1.8 1.9 2.6a5.24 5.24 0 0 0 1 1.1l.5.5.3.2c.1.1.3.2.4.4a3.32 3.32 0 0 1 .7 2.1 3.51 3.51 0 0 1-.6 1.8 4.56 4.56 0 0 1-2.7 2.2 8.19 8.19 0 0 0 1.4-2.8 2.29 2.29 0 0 0-.2-2.2c0-.1-.1-.1-.2-.2a1.38 1.38 0 0 0-.4-.3 3.74 3.74 0 0 1-.6-.7 6 6 0 0 1-.9-1.5 10.13 10.13 0 0 1-.6-3.2Z" class="cls-8"/><path d="M236.2 294.8a5.65 5.65 0 0 1-5.5-1.8" class="cls-11"/><path d="M229.4 281.4a1.55 1.55 0 0 0 1.3-1.9l-.2-.9a1.55 1.55 0 0 0-1.9-1.3 1.55 1.55 0 0 0-1.3 1.9l.2.9a1.77 1.77 0 0 0 1.9 1.3ZM241.6 279.4a1.55 1.55 0 0 0 1.3-1.9l-.2-.9a1.55 1.55 0 0 0-1.9-1.3 1.55 1.55 0 0 0-1.3 1.9l.2.9a1.68 1.68 0 0 0 1.9 1.3ZM228.5 271a1.4 1.4 0 0 0 1.5-1.6 4.36 4.36 0 0 0-.7-2.1c-.9-1-4.4-.7-7 1.3s-3.7 4.6-2.4 4.7 3.2-1.6 5.3-2.1a7.39 7.39 0 0 1 3.3-.2ZM241.6 269.5a.65.65 0 0 1-1-.4c-.2-.8-.4-2-.1-2.3.5-.6 2-.2 2.3.7s.4 1.4.1 1.4-.8.2-1.3.6ZM204.1 283.6a1.59 1.59 0 0 1-.1-2 2 2 0 0 1 .7-.6c.1 0 .2-.1.4-.1a1.7 1.7 0 0 1 .7.1 1.54 1.54 0 0 1 .7.7 6.72 6.72 0 0 1 .6 1.2c.3.7.4 1.4.6 1.9a1.61 1.61 0 0 0 .4.7 1.49 1.49 0 0 0 1 .3 1.66 1.66 0 0 1-1.2.5 1.71 1.71 0 0 1-1.3-.7 9.24 9.24 0 0 1-1.2-2.1 9.44 9.44 0 0 0-.3-.9c0-.1-.1-.2 0-.2a.55.55 0 0 0-.5.2 1.6 1.6 0 0 0-.5 1Z" class="cls-8"/><path d="M486.8 221.7h-35.2L448 224a1.78 1.78 0 0 1-2.7-1.4v-24.9a4.59 4.59 0 0 1 4.6-4.6h36.8a4.59 4.59 0 0 1 4.6 4.6v19.4a4.5 4.5 0 0 1-4.5 4.6Z" class="cls-9"/><path d="m455.8 212.5 3.5-3.5a4.77 4.77 0 0 1 6.8 0 4.77 4.77 0 0 0 6.8 0l6.7-6.7" class="cls-11"/><path d="m480.7 204.3 1.2-4.3-4.3 1.2 3.1 3.1z" class="cls-8"/><path d="m795.8 337.9-92.2-10.8a4.27 4.27 0 0 1-3.7-5.4l21.3-97.4a6.11 6.11 0 0 1 5.1-4.5l96.2-10.1a3.4 3.4 0 0 1 3.9 4.1l-25.5 120.4a4.85 4.85 0 0 1-5.1 3.7Z" class="cls-17"/><path d="m792.1 337.9-93-10.9a4.33 4.33 0 0 1-3.8-5.4l21.5-98.1a5.86 5.86 0 0 1 5.2-4.5l96.9-10.2a3.4 3.4 0 0 1 3.9 4.1L797 334.3a4.58 4.58 0 0 1-4.9 3.6Z" class="cls-8"/><path d="m757.8 243.8-35 1.7a1.33 1.33 0 0 1-1.4-1.6l2.8-13a1.94 1.94 0 0 1 1.6-1.4l35.3-3a1.26 1.26 0 0 1 1.4 1.6l-3.1 14.4a1.85 1.85 0 0 1-1.6 1.3Z" class="cls-10"/><path d="M711.5 316.7a1.21 1.21 0 0 1-1.1-1.5l5.2-24.4a1.62 1.62 0 0 1 1.7-1.3 1.17 1.17 0 0 1 1.1 1.5l-5.2 24.5a1.56 1.56 0 0 1-1.7 1.2Z" class="cls-9"/><path d="m723.9 316.4 6.2-28.8a1.62 1.62 0 0 1 1.7-1.3h.2a1.25 1.25 0 0 1 1.2 1.5l-6.2 28.8a1.72 1.72 0 0 1-1.8 1.3h-.2a1.14 1.14 0 0 1-1.1-1.5Z" class="cls-12"/><path d="m737.4 317.5 7-32.9a1.93 1.93 0 0 1 1.9-1.5 1.34 1.34 0 0 1 1.3 1.7l-7 32.9a2 2 0 0 1-2 1.5 1.33 1.33 0 0 1-1.2-1.7ZM787.4 255.4l2.3 4.9c-2.8 3.2-6.2 5.2-9.4 5.2-6.2 0-9.5-7.5-7.5-16.8s8.6-17.2 14.9-17.7c3.3-.3 5.8 1.4 7.3 4.4l-4.4 5.2a4.28 4.28 0 0 0-4.3-2.7c-3.8.3-7.8 5-9.1 10.7s.8 10.2 4.6 10.1a8.73 8.73 0 0 0 5.6-3.3Z" class="cls-10"/><path d="M796 247.6a29.26 29.26 0 0 1-6.2 12.6l-2.3-4.9a16.56 16.56 0 0 0 3.7-7.5 11.54 11.54 0 0 0-.5-7.3l4.4-5.2c1.5 3.1 1.9 7.4.9 12.3Z" class="cls-12"/><path d="M760.7 303.9c-2 9.3 1.3 16.8 7.5 16.8 3.2 0 6.6-2 9.4-5.2l-2.3-4.9a8.6 8.6 0 0 1-5.6 3.2c-3.8.1-5.8-4.5-4.6-10.1a16.55 16.55 0 0 1 3.1-6.7l-2.1-4.6a28.43 28.43 0 0 0-5.4 11.5Z" class="cls-10"/><path d="M774.2 293.1a4.33 4.33 0 0 1 4.3 2.7l4.4-5.2c-1.5-3-4.1-4.7-7.3-4.4-3.4.3-6.8 2.7-9.6 6.2l2.1 4.6c1.8-2.2 3.9-3.8 6.1-3.9Z" class="cls-12"/><path d="M783.8 303a29.26 29.26 0 0 1-6.2 12.6l-2.3-4.9a16.56 16.56 0 0 0 3.7-7.5 11.54 11.54 0 0 0-.5-7.3l4.4-5.2c1.5 3 2 7.4.9 12.3Z" class="cls-9"/><path d="m720.2 254.2 24.6-.9M718.8 259.8l35.2-.4M717.7 265.6h35.6" class="cls-15"/><path d="M809.7 218.5c.2-.8-.1-1.4-.7-1.4a1.85 1.85 0 0 0-1.3 1.6c-.2.8.1 1.4.7 1.4a1.85 1.85 0 0 0 1.3-1.6ZM815.5 218c.2-.8-.2-1.4-.7-1.4a2.11 2.11 0 0 0-1.4 1.6c-.2.8.2 1.4.7 1.4a1.82 1.82 0 0 0 1.4-1.6Z" class="cls-17"/><path d="M445.3 439.5v.3a1.79 1.79 0 0 1-1.8 1.8h-84.8a1.79 1.79 0 0 1-1.8-1.8 2.84 2.84 0 0 1 .7-1.7l16.4-16.2a4 4 0 0 1 2.8-1.2h55.7a4.16 4.16 0 0 1 3.5 2l9 15.5a7.89 7.89 0 0 1 .3 1.3Z" class="cls-8"/><path d="M403 435.2c0 .3-.6.6-1.4.6s-1.4-.3-1.4-.6.6-.6 1.4-.6 1.4.3 1.4.6Z" class="cls-17"/><path d="M740.1 528.4s-7.7-16.5 11.6-26.9 46.1-.1 43.7 3.5a118.47 118.47 0 0 1-12.7 16.5c-6.1 6.7-23.6 17.1-42.6 6.9Z" class="cls-10"/><path d="M792 504.3s-42.4-9.5-52 24.1-6.6 65.8-6.6 65.8" class="cls-11"/><path d="m701.9 566.2 6.9 81.3c0 3.1 12.6 5.5 28.2 5.5s28.2-2.5 28.2-5.5l6.9-81.3Z" class="cls-8"/><ellipse cx="737" cy="566.2" class="cls-10" rx="35" ry="5.3"/><path d="M728.1 549.3s-11.3-5.6-18.6 7-1.9 31.6 3.1 34.4 25.8-6.7 25.8-25.8c0-17-10.3-15.6-10.3-15.6Z" class="cls-10"/><path d="M728.1 549.3s-11.3-.8-14.7 38.8" class="cls-11"/><path d="M719.5 526.2s-11.9-18.5-35.7-6.6-23.1 44.7-19.4 46.6 59.4-17.5 55.1-40Z" class="cls-10"/><path d="M738.4 564.9s-7.4-26-18.9-38.8-47.2 1.9-53.5 32.8" class="cls-11"/><path d="M751.7 536.6s-10.1-3.5-14.7 9c-4.5 12.2.8 40 26.8 48.4a3.6 3.6 0 0 0 3.8-1.1 43.2 43.2 0 0 0 9.9-28c-.1-20.3-11.3-35-25.8-28.3Z" class="cls-10"/><path d="M751.7 536.6s21 10.3 13.3 53.6" class="cls-11"/><path d="M539 402.8s.4 12.6 18.6 13.8 53.4-2.8 60.3-4.7 6.5-13 2.1-16.1-30.8-4.5-44.3-6.5c-3.1-.5-6.7-1.1-10.4-1.4a76.28 76.28 0 0 0-9.5-.4c-9.1.4-16.7 3.9-16.8 15.3Z" class="cls-10"/><path d="M538.8 399.3s0-2.6 3.9-1.9c8.5 1.6 15.7 19.9 7 17.6M575.6 389.3c-3.1-.5-6.7-1.1-10.4-1.4a76.28 76.28 0 0 0-9.5-.4" class="cls-11"/><path d="M664.9 330.9c3.3 1.1 5.7 3.7 9.9 16.4 5.5 16.6 12.5 51.8 8.9 61.3s-10.8 14.4-35 15.5-47.7-.8-50.8-.8-8.3-11.4-5-18.9c0 0 20.5-5 32.1-8.1s24.4-6.4 29.7-7c0 0-8.6-21.1-11.4-28.5s-.5-20 6.1-25.7 12.7-5.1 15.5-4.2Z" class="cls-10"/><path d="M654.6 389.3s9.9-2 15.8 0M684.7 402.8s-2.1-5-10.6.6c-6.7 4.4-8.7 17.6-1.4 16.8" class="cls-11"/><path d="M594.9 404.6s-5.3.5-10.7.5-12.7.9-14.4 1.7-18.9 18-18.5 20.3 3.6.8 6.4-1.1 8-7.1 9.1-7.8a63.22 63.22 0 0 0-2.7 8c-1.3 4.8-2.6 9.6-1.3 10.4 1.7 1 3.3-.7 3.8-1.7 0 0-.1 2.5 1.9 2.6s3.9-3.7 5.5-6.9a59 59 0 0 1 5.1-7.4s-1.6 5.1-2.2 7.9-1 6.1.5 6.4c2.3.5 4.4-6.3 5.7-8.9s6.4-.9 10.1-3.2a27.21 27.21 0 0 1 5.8-3s2.5-2.5 2.5-7.9-4.5-10.1-6.6-9.9Z" class="cls-9"/><path d="M566.4 435s4.8-14 6.8-16.7 2.7-2.9 3.3-3.3M566.6 418.3s.8-1.6 2.1-4a10.88 10.88 0 0 1 2.2-2.4M578.9 423.2s1.4-3.4 2.8-3.8" class="cls-23"/><path d="M610.8 394.4a81.72 81.72 0 0 0 7.7-3c3.7-1.7 5.2-2.4 8.1-2.6s12-.3 13.3.5 3 4.6 3.9 6.5-2 9.4-2 9.4 1.3 6.6-.3 7.3c-1 .4-1.9.2-3.2-3.3 0 0 .9 3-.9 3.2s-3.8-5-5.1-7.3a40.85 40.85 0 0 0-3.8-5.2s1.1 3.6 1.3 4.8 1 4.3.5 5.5-2.3-.4-4.1-4.5-2.4-5.5-3.5-5.4c-6.2.6-5.8-.8-8.8-1l-6.6 1.7c-.1-.1-.8-4.1 3.5-6.6Z" class="cls-9"/><path d="M638.3 409.1s-2-6.5-2.7-8.5a41.82 41.82 0 0 0-3-5.5M641.8 405.1s-1.2-7-1.7-8.7a20.62 20.62 0 0 0-1.3-3.1M628.4 399.8s-.6-2-.9-2.6" class="cls-23"/></svg>